# File created by Blade
# Date/Time:  Thu Jan 22 18:06:37 2015
#---------------------------------------------------------
:version 1.10
:name HOM
:units
  mass 1.0
  length 1.000000
  angle deg
:documentation
     Acclaim Skeleton File
:root
   axis xyz
   order TX TY TZ RX RY RZ
   position 0.000000 0.000000 0.000000
   orientation 0 0 0
:bonedata
   begin
      id 1
      name RightUpLeg_dum
      direction -1.000000 0.000000 0.000000
      length 4.478084
      axis 0.0 0.0 0.0 xyz
   end
   begin
      id 2
      name LeftUpLeg_dum
      direction 1.000000 0.000000 0.000000
      length 4.478084
      axis 0.0 0.0 0.0 xyz
   end
   begin
      id 3
      name Spine_dum
      direction 0.000000 1.000000 0.000000
      length 6.068208
      axis 0.0 0.0 0.0 xyz
   end
   begin
      id 4
      name RightUpLeg
      direction 0.000000 -1.000000 0.000000
      length 16.405774
      axis 0.0 0.0 0.0 xyz
      dof rx ry rz
   end
   begin
      id 5
      name RightLeg
      direction 0.000000 -1.000000 0.000000
      length 14.644143
      axis 0.0 0.0 0.0 xyz
      dof rx ry rz
   end
   begin
      id 6
      name RightFoot
      direction 0.000000 -0.258819 0.965926
      length 5.806150
      axis 15.0 0.0 0.0 xyz
      dof rx ry rz
   end
   begin
      id 7
      name RightToeBase
      direction 0.000000 0.000000 1.000000
      length 2.952750
      axis 0.0 0.0 0.0 xyz
      dof rx ry rz
   end
   begin
      id 8
      name LeftUpLeg
      direction 0.000000 -1.000000 0.000000
      length 16.405774
      axis 0.0 0.0 0.0 xyz
      dof rx ry rz
   end
   begin
      id 9
      name LeftLeg
      direction 0.000000 -1.000000 0.000000
      length 14.644143
      axis 0.0 0.0 0.0 xyz
      dof rx ry rz
   end
   begin
      id 10
      name LeftFoot
      direction 0.000000 -0.258819 0.965926
      length 5.806150
      axis 15.0 0.0 0.0 xyz
      dof rx ry rz
   end
   begin
      id 11
      name LeftToeBase
      direction 0.000000 0.000000 1.000000
      length 2.952750
      axis 0.0 0.0 0.0 xyz
      dof rx ry rz
   end
   begin
      id 12
      name Spine
      direction 0.000000 1.000000 0.000000
      length 0.000000
      axis 0.0 0.0 0.0 xyz
      dof rx ry rz
   end
   begin
      id 13
      name Spine_dum1
      direction 0.000000 1.000000 0.000000
      length 10.013923
      axis 0.0 0.0 0.0 xyz
   end
   begin
      id 14
      name Spine_dum2
      direction 0.000000 1.000000 0.000000
      length 10.013923
      axis 0.0 0.0 0.0 xyz
   end
   begin
      id 15
      name Spine_dum3
      direction 0.000000 1.000000 0.000000
      length 15.777476
      axis 0.0 0.0 0.0 xyz
   end
   begin
      id 16
      name RightShoulder
      direction -1.000000 0.000000 0.000000
      length 7.190220
      axis 0.0 0.0 90.0 xyz
      dof rx ry rz
   end
   begin
      id 17
      name RightArm
      direction -1.000000 0.000000 0.000000
      length 10.177469
      axis 0.0 0.0 90.0 xyz
      dof rx ry rz
   end
   begin
      id 18
      name RightForeArm
      direction -1.000000 0.000000 0.000000
      length 8.392114
      axis 0.0 0.0 90.0 xyz
      dof ry rz rx
   end
   begin
      id 19
      name RightHand
      direction -1.000000 0.000000 0.000000
      length 0.000000
      axis 0.0 0.0 90.0 xyz
      dof rx ry rz
   end
   begin
      id 20
      name RightHand_dum1
      direction -1.000000 0.000000 0.000000
      length 3.937000
      axis 0.0 0.0 90.0 xyz
   end
   begin
      id 21
      name RightHand_dum2
      direction 0.000000 0.000000 0.000000
      length 0.000000
      axis 0.0 0.0 90.0 xyz
   end
   begin
      id 22
      name RightHandThumb1
      direction 0.000000 0.000000 1.000000
      length 3.937000
      axis 0.0 0.0 90.0 xyz
      dof rx rz ry
   end
   begin
      id 23
      name LeftShoulder
      direction 1.000000 0.000000 0.000000
      length 7.190220
      axis 0.0 0.0 -90.0 xyz
      dof rx ry rz
   end
   begin
      id 24
      name LeftArm
      direction 1.000000 0.000000 0.000000
      length 10.177469
      axis 0.0 0.0 -90.0 xyz
      dof rx ry rz
   end
   begin
      id 25
      name LeftForeArm
      direction 1.000000 0.000000 0.000000
      length 8.392114
      axis 0.0 0.0 -90.0 xyz
      dof ry rz rx
   end
   begin
      id 26
      name LeftHand
      direction 1.000000 0.000000 0.000000
      length 0.000000
      axis 0.0 0.0 -90.0 xyz
      dof rx ry rz
   end
   begin
      id 27
      name LeftHand_dum1
      direction 1.000000 0.000000 0.000000
      length 3.937000
      axis 0.0 0.0 -90.0 xyz
   end
   begin
      id 28
      name LeftHand_dum2
      direction 0.000000 0.000000 0.000000
      length 0.000000
      axis 0.0 0.0 -90.0 xyz
   end
   begin
      id 29
      name LeftHandThumb1
      direction 0.000000 0.000000 1.000000
      length 3.937000
      axis 0.0 0.0 -90.0 xyz
      dof rx rz ry
   end
   begin
      id 30
      name Head
      direction 0.000000 1.000000 0.000000
      length 4.527550
      axis 0.0 0.0 0.0 xyz
      dof rx ry rz
   end
:hierarchy
   begin
      root RightUpLeg_dum LeftUpLeg_dum Spine_dum
      RightUpLeg_dum RightUpLeg
      LeftUpLeg_dum LeftUpLeg
      Spine_dum Spine
      RightUpLeg RightLeg
      RightLeg RightFoot
      RightFoot RightToeBase
      LeftUpLeg LeftLeg
      LeftLeg LeftFoot
      LeftFoot LeftToeBase
      Spine Spine_dum1 Spine_dum2 Spine_dum3
      Spine_dum1 RightShoulder
      Spine_dum2 LeftShoulder
      Spine_dum3 Head
      RightShoulder RightArm
      RightArm RightForeArm
      RightForeArm RightHand
      RightHand RightHand_dum1 RightHand_dum2
      RightHand_dum2 RightHandThumb1
      LeftShoulder LeftArm
      LeftArm LeftForeArm
      LeftForeArm LeftHand
      LeftHand LeftHand_dum1 LeftHand_dum2
      LeftHand_dum2 LeftHandThumb1
   end

# File created by Blade
# Date/Time:  Thu Jan 22 18:06:27 2015
# Frame Rate: 120.000 fps
#------------------------------------------------------
:FULLY-SPECIFIED
:DEGREES
1535
root 0.573592 32.978477 -1.889674 8.312290 17.990832 2.211214
RightUpLeg -28.640608 8.303012 -0.563802
RightLeg 136.399879 -0.000000 -0.000000
RightFoot 18.805933 -3.490149 1.596101
RightToeBase -3.930235 -0.000000 0.000000
LeftUpLeg -1.837427 -10.695360 -8.446495
LeftLeg 0.929392 -0.000000 -0.000000
LeftFoot -8.169920 -4.862517 -3.152970
LeftToeBase 9.730356 -0.000000 -0.000000
Spine -10.230507 -8.475391 -0.686036
RightShoulder -19.519722 -20.496303 -21.990923
RightArm 13.716828 30.902614 51.748127
RightForeArm -8.896005 0.000000 17.780381
RightHand 12.740866 -0.000000 -4.644967
RightHandThumb1 -24.326973 -0.000000 -32.862282
LeftShoulder -21.070702 2.525920 23.183350
LeftArm 29.110689 -26.174369 -60.528517
LeftForeArm 5.855312 -0.000000 54.019673
LeftHand 0.386699 -0.000000 30.011786
LeftHandThumb1 -26.253704 0.000000 33.147579
Head 17.713821 2.562708 -2.773849
1536
root 0.573951 32.979971 -1.893115 8.321733 18.100778 2.181761
RightUpLeg -28.674159 8.184479 -0.484751
RightLeg 135.889005 -0.000000 -0.000000
RightFoot 18.669283 -3.229170 1.673873
RightToeBase -4.813177 -0.000000 0.000000
LeftUpLeg -1.894377 -10.721870 -8.408904
LeftLeg 0.995192 -0.000000 -0.000000
LeftFoot -8.194085 -4.909984 -3.105816
LeftToeBase 9.713971 -0.000000 -0.000000
Spine -10.216886 -8.546431 -0.667428
RightShoulder -19.498923 -20.483314 -22.011817
RightArm 13.646703 30.953482 51.690571
RightForeArm -8.915216 -0.000000 17.819595
RightHand 12.759262 -0.000000 -4.721272
RightHandThumb1 -24.326973 -0.000000 -32.862282
LeftShoulder -21.034092 2.463854 23.231034
LeftArm 29.131045 -26.198477 -60.555581
LeftForeArm 5.885602 -0.000000 53.904509
LeftHand 0.362004 -0.000000 30.008139
LeftHandThumb1 -26.253704 0.000000 33.147579
Head 17.739459 2.528576 -2.705799
1537
root 0.574793 32.981644 -1.900100 8.357504 18.215383 2.156517
RightUpLeg -28.737895 8.068236 -0.417571
RightLeg 135.261408 -0.000000 -0.000000
RightFoot 18.094079 -3.393432 1.817426
RightToeBase -3.385376 -0.000000 0.000000
LeftUpLeg -1.997529 -10.732338 -8.373395
LeftLeg 1.095732 -0.000000 -0.000000
LeftFoot -8.227209 -4.981049 -3.073285
LeftToeBase 9.754037 -0.000000 -0.000000
Spine -10.223755 -8.615925 -0.646799
RightShoulder -19.515472 -20.509692 -22.016930
RightArm 13.647509 30.955646 51.652640
RightForeArm -8.899637 0.000000 17.846300
RightHand 12.736860 -0.000000 -4.905049
RightHandThumb1 -24.326973 -0.000000 -32.862282
LeftShoulder -20.997299 2.575017 23.192499
LeftArm 29.326974 -26.345925 -60.643652
LeftForeArm 5.735970 -0.000000 53.822419
LeftHand 0.476539 0.000000 29.725979
LeftHandThumb1 -26.253704 0.000000 33.147579
Head 17.749134 2.494783 -2.637187
1538
root 0.575990 32.982532 -1.906110 8.391897 18.315799 2.143215
RightUpLeg -28.790862 7.917568 -0.331315
RightLeg 134.588886 -0.000000 -0.000000
RightFoot 17.244083 -3.052752 1.329905
RightToeBase -4.192563 -0.000000 0.000000
LeftUpLeg -2.097186 -10.743125 -8.348052
LeftLeg 1.200484 -0.000000 -0.000000
LeftFoot -8.264133 -5.058065 -3.049995
LeftToeBase 9.749376 -0.000000 -0.000000
Spine -10.228831 -8.678723 -0.646768
RightShoulder -19.525462 -20.497591 -22.020201
RightArm 13.616590 30.963177 51.597090
RightForeArm -8.875016 0.000000 17.904914
RightHand 12.671030 -0.000000 -4.856183
RightHandThumb1 -24.326973 -0.000000 -32.862282
LeftShoulder -20.974092 2.552934 23.204640
LeftArm 29.403900 -26.365571 -60.641316
LeftForeArm 5.718957 -0.000000 53.721169
LeftHand 0.483196 0.000000 29.676981
LeftHandThumb1 -26.253704 0.000000 33.147579
Head 17.760903 2.465952 -2.559021
1539
root 0.577523 32.982073 -1.912336 8.432101 18.395522 2.137348
RightUpLeg -28.845312 7.814887 -0.264093
RightLeg 133.868523 -0.000000 -0.000000
RightFoot 15.970135 -3.244353 0.989091
RightToeBase -4.792441 -0.000000 0.000000
LeftUpLeg -2.200310 -10.742326 -8.328126
LeftLeg 1.306809 -0.000000 -0.000000
LeftFoot -8.307234 -5.156284 -3.073496
LeftToeBase 9.811423 -0.000000 -0.000000
Spine -10.244621 -8.715384 -0.667751
RightShoulder -19.543760 -20.483633 -22.006024
RightArm 13.590010 30.946610 51.531309
RightForeArm -8.828052 -0.000000 17.945015
RightHand 12.677782 0.000000 -4.878350
RightHandThumb1 -24.326973 -0.000000 -32.862282
LeftShoulder -20.934278 2.457726 23.258174
LeftArm 29.385711 -26.323641 -60.578035
LeftForeArm 5.652417 0.000000 53.628844
LeftHand 0.534641 -0.000000 29.701270
LeftHandThumb1 -26.253704 0.000000 33.147579
Head 17.800159 2.410081 -2.470879
1540
root 0.578682 32.982431 -1.920108 8.478724 18.451509 2.123571
RightUpLeg -28.885535 7.691849 -0.154332
RightLeg 133.032062 -0.000000 -0.000000
RightFoot 14.665802 -2.892467 -0.289713
RightToeBase -2.334316 -0.000000 0.000000
LeftUpLeg -2.314605 -10.733241 -8.301302
LeftLeg 1.407779 -0.000000 -0.000000
LeftFoot -8.339755 -5.231359 -3.076637
LeftToeBase 9.792706 -0.000000 -0.000000
Spine -10.270864 -8.721927 -0.673204
RightShoulder -19.579410 -20.490905 -22.005844
RightArm 13.614839 30.971241 51.530347
RightForeArm -8.824493 0.000000 17.982794
RightHand 12.647956 -0.000000 -4.891567
RightHandThumb1 -24.326973 -0.000000 -32.862282
LeftShoulder -20.905477 2.479846 23.220358
LeftArm 29.523391 -26.343503 -60.541624
LeftForeArm 5.602373 0.000000 53.533349
LeftHand 0.557066 -0.000000 29.620350
LeftHandThumb1 -26.253704 0.000000 33.147579
Head 17.844634 2.370557 -2.402855
1541
root 0.580453 32.980937 -1.925473 8.512340 18.481931 2.131781
RightUpLeg -28.922168 7.625406 -0.083562
RightLeg 132.233784 -0.000000 -0.000000
RightFoot 12.753850 -3.420708 -0.824687
RightToeBase -1.321772 -0.000000 0.000000
LeftUpLeg -2.393671 -10.716466 -8.298202
LeftLeg 1.487856 -0.000000 -0.000000
LeftFoot -8.376732 -5.324933 -3.136434
LeftToeBase 9.885099 -0.000000 -0.000000
Spine -10.281700 -8.718102 -0.717468
RightShoulder -19.616675 -20.550907 -21.975254
RightArm 13.695077 31.002518 51.546870
RightForeArm -8.826442 -0.000000 18.013901
RightHand 12.629777 -0.000000 -4.854967
RightHandThumb1 -24.326973 -0.000000 -32.862282
LeftShoulder -20.859484 2.458399 23.239615
LeftArm 29.555176 -26.322609 -60.463962
LeftForeArm 5.565942 -0.000000 53.456177
LeftHand 0.587550 -0.000000 29.624247
LeftHandThumb1 -26.253704 0.000000 33.147579
Head 17.903930 2.323776 -2.329615
1542
root 0.578830 32.978065 -1.930157 8.531585 18.486578 2.112327
RightUpLeg -28.939046 7.595621 0.014896
RightLeg 131.426437 -0.000000 -0.000000
RightFoot 10.667828 -3.928328 -2.000807
RightToeBase -2.014460 -0.000000 0.000000
LeftUpLeg -2.446380 -10.745484 -8.263826
LeftLeg 1.524967 -0.000000 -0.000000
LeftFoot -8.428385 -5.352034 -3.206674
LeftToeBase 9.971969 -0.000000 -0.000000
Spine -10.282569 -8.699721 -0.744770
RightShoulder -19.635102 -20.563511 -21.952490
RightArm 13.727770 31.031913 51.537607
RightForeArm -8.869741 -0.000000 18.075147
RightHand 12.573683 -0.000000 -4.690648
RightHandThumb1 -24.326973 -0.000000 -32.862282
LeftShoulder -20.847042 2.391449 23.263690
LeftArm 29.570276 -26.255309 -60.340702
LeftForeArm 5.484752 -0.000000 53.373924
LeftHand 0.608187 -0.000000 29.610418
LeftHandThumb1 -26.253704 0.000000 33.147579
Head 17.944288 2.305142 -2.249293
1543
root 0.576346 32.973661 -1.933215 8.531446 18.466984 2.079702
RightUpLeg -28.919245 7.568116 0.156541
RightLeg 130.643285 -0.000000 -0.000000
RightFoot 8.454559 -4.668804 -3.701587
RightToeBase -2.159948 -0.000000 0.000000
LeftUpLeg -2.469430 -10.730304 -8.217304
LeftLeg 1.531855 -0.000000 -0.000000
LeftFoot -8.481298 -5.410876 -3.276995
LeftToeBase 10.032393 -0.000000 -0.000000
Spine -10.266055 -8.666280 -0.763186
RightShoulder -19.666200 -20.605850 -21.928860
RightArm 13.820299 31.040790 51.569972
RightForeArm -8.912539 -0.000000 18.130842
RightHand 12.534917 -0.000000 -4.545589
RightHandThumb1 -24.326973 -0.000000 -32.862282
LeftShoulder -20.819554 2.295836 23.322540
LeftArm 29.496321 -26.191482 -60.203082
LeftForeArm 5.388769 0.000000 53.331300
LeftHand 0.663104 -0.000000 29.519431
LeftHandThumb1 -26.253704 0.000000 33.147579
Head 17.975015 2.303537 -2.181052
1544
root 0.580791 32.969417 -1.939100 8.559351 18.400275 2.121115
RightUpLeg -28.931095 7.576700 0.199680
RightLeg 129.876593 -0.000000 -0.000000
RightFoot 6.226712 -5.585933 -5.623525
RightToeBase -2.268441 -0.000000 0.000000
LeftUpLeg -2.487609 -10.704029 -8.264006
LeftLeg 1.525651 -0.000000 -0.000000
LeftFoot -8.484331 -5.409567 -3.310905
LeftToeBase 10.123586 -0.000000 -0.000000
Spine -10.257371 -8.620194 -0.847354
RightShoulder -19.665922 -20.609189 -21.930900
RightArm 13.883802 31.011421 51.593750
RightForeArm -8.909074 -0.000000 18.165001
RightHand 12.546272 -0.000000 -4.415988
RightHandThumb1 -24.326973 -0.000000 -32.862282
LeftShoulder -20.816926 2.269085 23.354324
LeftArm 29.484487 -26.148304 -60.092369
LeftForeArm 5.306651 -0.000000 53.286612
LeftHand 0.663311 -0.000000 29.487713
LeftHandThumb1 -26.253704 0.000000 33.147579
Head 18.002263 2.317986 -2.132598
1545
root 0.585723 32.963807 -1.946508 8.592008 18.304900 2.176466
RightUpLeg -28.983727 7.643526 0.202101
RightLeg 129.120273 -0.000000 -0.000000
RightFoot 4.231076 -6.441745 -7.786544
RightToeBase -2.412160 -0.000000 0.000000
LeftUpLeg -2.510988 -10.627363 -8.329708
LeftLeg 1.523841 -0.000000 -0.000000
LeftFoot -8.478217 -5.444712 -3.340961
LeftToeBase 10.096066 -0.000000 -0.000000
Spine -10.240996 -8.546100 -0.951858
RightShoulder -19.674808 -20.589790 -21.947874
RightArm 13.943747 30.949616 51.626507
RightForeArm -8.898142 -0.000000 18.193550
RightHand 12.499081 -0.000000 -4.295790
RightHandThumb1 -24.326973 -0.000000 -32.862282
LeftShoulder -20.814936 2.233652 23.388934
LeftArm 29.461669 -26.097240 -59.971189
LeftForeArm 5.264501 -0.000000 53.264957
LeftHand 0.672900 0.000000 29.420174
LeftHandThumb1 -26.253704 0.000000 33.147579
Head 18.002849 2.337877 -2.100191
1546
root 0.592108 32.957193 -1.954366 8.625246 18.176613 2.239588
RightUpLeg -29.060403 7.737379 0.182266
RightLeg 128.369418 -0.000000 -0.000000
RightFoot 2.647638 -7.454048 -9.773771
RightToeBase -2.646382 -0.000000 0.000000
LeftUpLeg -2.525595 -10.538367 -8.408446
LeftLeg 1.504659 -0.000000 -0.000000
LeftFoot -8.476459 -5.461647 -3.357193
LeftToeBase 10.073935 -0.000000 -0.000000
Spine -10.228794 -8.466632 -1.058150
RightShoulder -19.653984 -20.541170 -21.981378
RightArm 13.989123 30.830840 51.632451
RightForeArm -8.944230 -0.000000 18.193294
RightHand 12.518547 -0.000000 -4.346647
RightHandThumb1 -24.326973 -0.000000 -32.862282
LeftShoulder -20.822222 2.232896 23.415579
LeftArm 29.421281 -26.105156 -59.873472
LeftForeArm 5.126515 0.000000 53.321277
LeftHand 0.623814 -0.000000 29.174477
LeftHandThumb1 -26.253704 0.000000 33.147579
Head 18.013440 2.376557 -2.085955
